<svg id="Layer_1" data-name="Layer 1" xmlns="http://www.w3.org/2000/svg" viewBox="0 0 633.4 806.74"><defs><style>.cls-1{font-size:70px;}.cls-1,.cls-15,.cls-4{fill:#025657;}.cls-1,.cls-15{font-family:Raleway-SemiBold, Raleway;}.cls-1,.cls-16,.cls-20,.cls-4{font-weight:700;}.cls-2{letter-spacing:-0.01em;}.cls-3{letter-spacing:-0.01em;}.cls-4{font-size:14px;}.cls-20,.cls-27,.cls-4{font-family:Helvetica-Bold, Helvetica;}.cls-5{letter-spacing:-0.05em;}.cls-6{fill:none;stroke:#025657;stroke-miterlimit:10;stroke-width:7.5px;}.cls-7{fill:#2a8687;}.cls-10,.cls-11,.cls-12,.cls-13,.cls-14,.cls-7,.cls-8,.cls-9{opacity:0.36;}.cls-8{fill:#95d1d1;}.cls-9{fill:#95d0d0;}.cls-10{fill:#008c92;}.cls-11{fill:#96cece;}.cls-12{fill:#005656;}.cls-13{fill:#95cfcf;}.cls-14{fill:#95cfd0;}.cls-15{font-size:24px;}.cls-17,.cls-20,.cls-27{font-size:16px;fill:#231f20;}.cls-17,.cls-28{font-family:Helvetica-Light, Helvetica;}.cls-18{letter-spacing:-0.01em;}.cls-19{letter-spacing:-0.07em;}.cls-21{letter-spacing:-0.02em;}.cls-22{letter-spacing:-0.07em;}.cls-23{letter-spacing:1.08em;}.cls-24{letter-spacing:1.97em;}.cls-25{letter-spacing:1.53em;}.cls-26{letter-spacing:-0.04em;}.cls-29{letter-spacing:3.54em;}.cls-30{letter-spacing:-0.02em;}.cls-31{letter-spacing:0.22em;}.cls-32{letter-spacing:0.22em;}.cls-33{letter-spacing:0.19em;}.cls-34{letter-spacing:0.19em;}.cls-35{letter-spacing:0.19em;}</style></defs><title>Resume</title><text class="cls-1" transform="translate(24.13 59.85)">DEIRDRE <tspan x="84" y="55" xml:space="preserve">   O</tspan><tspan class="cls-2" x="188.51" y="55">’</tspan><tspan class="cls-3" x="203.21" y="55">C</tspan><tspan x="250.6" y="55">ONNOR</tspan></text><text class="cls-4" transform="translate(396.73 170.7)">WW<tspan class="cls-5" x="26.43" y="0">W</tspan><tspan x="38.88" y="0">.DLOCONNOR.COM </tspan><tspan x="0" y="16.8">DLOCONNOR25@GMAIL.COM</tspan><tspan x="0" y="33.6">919.740.1022</tspan><tspan x="0" y="50.4">RALEIGH,NC</tspan></text><line class="cls-6" x1="390.8" y1="102.72" x2="390.8" y2="782.33"/><path class="cls-7" d="M252.88,600.25l82.3,49.94q1.05-1.83,2.17-3.63L257,591.44Q254.8,595.77,252.88,600.25Z" transform="translate(-9.34 -5.14)"/><path class="cls-8" d="M247.4,584.81l-112.89-77.5L109,512.93l133.93,81.26Q245,589.42,247.4,584.81Z" transform="translate(-9.34 -5.14)"/><path class="cls-9" d="M230.11,644.85,9.34,567.91l33.83,69.15,186.38,35A186.28,186.28,0,0,1,230.11,644.85Z" transform="translate(-9.34 -5.14)"/><path class="cls-10" d="M241.43,674.24l79.51,14.91q1.11-5.94,2.76-11.69L241.44,648.8A184.28,184.28,0,0,0,241.43,674.24Z" transform="translate(-9.34 -5.14)"/><path class="cls-8" d="M238.68,604.94,146.46,552.2l-37,32.83,122.29,47.18A165.16,165.16,0,0,1,238.68,604.94Z" transform="translate(-9.34 -5.14)"/><path class="cls-7" d="M242.77,636.45l83.76,32.32q2.06-5.59,4.64-10.93l-82.3-47.07A147.51,147.51,0,0,0,242.77,636.45Z" transform="translate(-9.34 -5.14)"/><path class="cls-11" d="M247.47,745.76l-59.23,9.66,48.3,32.6,27.26-11.21A247.77,247.77,0,0,1,247.47,745.76Z" transform="translate(-9.34 -5.14)"/><path class="cls-10" d="M259.27,743.83a232.4,232.4,0,0,0,15.38,28.51l50.22-20.65a134.24,134.24,0,0,1-4.3-17.86Z" transform="translate(-9.34 -5.14)"/><path class="cls-12" d="M399.13,697.15l.15-.22-.15-.22V697l-58-33.18q-2.19,4.57-3.95,9.34l62,23.9Z" transform="translate(-9.34 -5.14)"/><path class="cls-12" d="M399.18,704.25l0-.16,0-.06v0l-64.7-22.55q-1.38,4.95-2.29,10l67,12.56Z" transform="translate(-9.34 -5.14)"/><path class="cls-12" d="M399.14,709.53l-67.95-11.21q-.16,1.42-.29,2.85l68.24,8.38Z" transform="translate(-9.34 -5.14)"/><path class="cls-12" d="M399.41,720.4a6.72,6.72,0,0,1,0-2.49l-.15-.14v.31l-68.8-8.22q-.07,5.86.41,11.66l68.4-3.38,0,3.14-67.09,10.94a125.89,125.89,0,0,0,3.57,15.27l63.47-26.1.18-.26A6.77,6.77,0,0,1,399.41,720.4Z" transform="translate(-9.34 -5.14)"/><path class="cls-12" d="M398.78,689l-51.93-35.65c-.63,1-1.25,2-1.84,3.07l53.77,32.63Z" transform="translate(-9.34 -5.14)"/><path class="cls-13" d="M232.63,697.9l-114.69-13.7,6.54,47.25,115.32-5.7A212.89,212.89,0,0,1,232.63,697.9Z" transform="translate(-9.34 -5.14)"/><path class="cls-10" d="M318.84,708.2l-74-8.84a203.92,203.92,0,0,0,7,25.79l67.24-3.32A125.67,125.67,0,0,1,318.84,708.2Z" transform="translate(-9.34 -5.14)"/><path class="cls-14" d="M230.27,681.38,106.92,661l-29.4,8.74,153.61,18.87Q230.64,685,230.27,681.38Z" transform="translate(-9.34 -5.14)"/><path class="cls-7" d="M243.17,690.11l76.28,9.37q.17-1.66.39-3.32l-77.57-12.8Q242.66,686.75,243.17,690.11Z" transform="translate(-9.34 -5.14)"/><text class="cls-15" transform="translate(400.73 274.05)"><tspan class="cls-16">SKILLS</tspan><tspan class="cls-17"><tspan x="0" y="30" xml:space="preserve"> - UI/UX design</tspan><tspan x="0" y="51" xml:space="preserve"> - Adobe Creative Suite</tspan><tspan x="0" y="72" xml:space="preserve"> - Social media</tspan><tspan x="0" y="93" xml:space="preserve"> - Creative strategy</tspan><tspan x="0" y="114" xml:space="preserve"> - Logo design</tspan><tspan x="0" y="135" xml:space="preserve"> - Problem solving </tspan></tspan><tspan class="cls-16"><tspan x="0" y="185">EDU</tspan><tspan class="cls-18" x="49.7" y="185">C</tspan><tspan class="cls-19" x="65.88" y="185">A</tspan><tspan x="80.4" y="185">TION</tspan></tspan><tspan class="cls-20"><tspan x="0" y="215">The Iron</tspan><tspan class="cls-21" x="63.11" y="215"> </tspan><tspan class="cls-5" x="67.27" y="215">Y</tspan><tspan x="77.07" y="215">ard, </tspan></tspan><tspan class="cls-17"><tspan x="0" y="235">UI/UX Design</tspan><tspan x="0" y="255">Raleigh, NC 2016-2017</tspan></tspan><tspan class="cls-20"><tspan x="0" y="275">Appalachian State </tspan><tspan x="0" y="295">Universit</tspan><tspan class="cls-22" x="68.47" y="295">y</tspan><tspan x="76.19" y="295">,</tspan></tspan><tspan class="cls-17"><tspan x="0" y="315">BS in Communication </tspan><tspan class="cls-23" x="158.28" y="315">	</tspan><tspan class="cls-24" x="180" y="315">	</tspan><tspan x="0" y="335">Advertising, Minor in </tspan><tspan class="cls-25" x="151.14" y="335">	</tspan><tspan class="cls-24" x="180" y="335">	</tspan><tspan x="0" y="355">Fine Arts</tspan><tspan x="0" y="375">Boone, NC 2014</tspan></tspan><tspan class="cls-20"><tspan x="0" y="395">Massey Universit</tspan><tspan class="cls-22" x="130.73" y="395">y</tspan><tspan x="138.45" y="395">, </tspan></tspan><tspan class="cls-17"><tspan x="0" y="415">Fine Arts studies abroad </tspan><tspan x="0" y="435">Wellington, NZ 2014</tspan></tspan></text><text class="cls-15" transform="translate(233.92 153.65)"><tspan class="cls-16">EXPERIENCE</tspan><tspan class="cls-20"><tspan x="-98.74" y="30">The Iron</tspan><tspan class="cls-21" x="-35.63" y="30"> </tspan><tspan class="cls-5" x="-31.47" y="30">Y</tspan><tspan x="-21.67" y="30">ard Coding Bootcamp</tspan><tspan x="44.98" y="47">UI/UX Deisgn</tspan></tspan><tspan class="cls-17"><tspan x="-218.22" y="64">Graduated from a 3 month immersive course for UI </tspan><tspan x="-194.21" y="81">design. Learned to work with HTML, CSS, sass, </tspan><tspan x="-177.33" y="98">bootstrap, github, command lines, and more. </tspan></tspan><tspan class="cls-20"><tspan x="-73.58" y="132">Arizona Outback</tspan><tspan class="cls-26" x="53.56" y="132"> </tspan><tspan x="57.42" y="132">Adventures</tspan><tspan x="-79.46" y="149">Digital Marketing Coordinator</tspan></tspan><tspan class="cls-27"><tspan class="cls-16" x="-35.89" y="166" xml:space="preserve"> &amp; Outdoor guide </tspan><tspan class="cls-28" x="99.2" y="166">(2016)</tspan></tspan><tspan class="cls-17"><tspan class="cls-29" x="-233.92" y="183">	</tspan><tspan x="-172.88" y="183">Worked to engage clients in email marketing </tspan><tspan x="-220.89" y="200">and social media campaigns. Strategized, created, </tspan><tspan x="-231.62" y="217">and launched the companies first Instagram contest. </tspan><tspan x="-182.7" y="234">The contest doubled our followers, and set up </tspan><tspan x="-157.76" y="251">partnerships among four outdoors brands.</tspan></tspan><tspan class="cls-27"><tspan class="cls-16" x="-177.34" y="285">Anthropologie sales associate </tspan><tspan class="cls-28" x="58.29" y="285">(2015-2016) </tspan><tspan class="cls-16" x="-2.16" y="319">Capstrat inc. </tspan><tspan class="cls-28" x="99.2" y="319">(2012)</tspan></tspan><tspan class="cls-17"><tspan x="-229.76" y="336">Creative summer intern for a Communications firm in </tspan><tspan x="-218.22" y="353">Raleigh, NC. Learned skills in office administration, </tspan><tspan x="-172.88" y="370">blogging, and research while shadowing the </tspan><tspan x="-20.85" y="387">creative and PR teams.</tspan></tspan><tspan class="cls-16"><tspan x="41.86" y="434">HOBBI</tspan><tspan class="cls-30" x="116.66" y="434">E</tspan><tspan x="130.77" y="434">S</tspan></tspan><tspan class="cls-20"><tspan x="66.31" y="464">Adventure </tspan></tspan><tspan class="cls-17"><tspan x="-204.03" y="481">Hiked 1,200 miles of the AT with my dog in 2015, </tspan><tspan x="-233.92" y="498">documented</tspan><tspan class="cls-31" x="-143.22" y="498"> </tspan><tspan x="-135.28" y="498">my</tspan><tspan class="cls-31" x="-113.95" y="498"> </tspan><tspan x="-106.01" y="498">experiences</tspan><tspan class="cls-31" x="-17.98" y="498"> </tspan><tspan x="-10.04" y="498">via</tspan><tspan class="cls-32" x="10.41" y="498"> </tspan><tspan x="18.35" y="498">photography</tspan><tspan class="cls-31" x="109.94" y="498"> </tspan><tspan x="117.88" y="498">and </tspan><tspan x="-63.49" y="515">creative writing (see website)</tspan></tspan><tspan class="cls-20"><tspan class="cls-22" x="31.04" y="549">V</tspan><tspan x="40.53" y="549">olunteer work</tspan></tspan><tspan class="cls-17"><tspan class="cls-33" x="-233.92" y="566"> </tspan><tspan x="-226.47" y="566">Teaching</tspan><tspan class="cls-34" x="-159.77" y="566"> </tspan><tspan x="-152.31" y="566">coding</tspan><tspan class="cls-35" x="-102.52" y="566"> </tspan><tspan x="-95.07" y="566">to</tspan><tspan class="cls-35" x="-81.73" y="566"> </tspan><tspan x="-74.28" y="566">children,</tspan><tspan class="cls-35" x="-12.04" y="566"> </tspan><tspan x="-4.58" y="566">Red</tspan><tspan class="cls-34" x="24.76" y="566"> </tspan><tspan x="32.21" y="566">Cross</tspan><tspan class="cls-35" x="73.99" y="566"> </tspan><tspan x="81.44" y="566">member, </tspan><tspan x="-177.38" y="583">donate time and money to causes advancing </tspan><tspan x="-77.78" y="602.2">women’s health and education. </tspan></tspan></text></svg>