<?xml version="1.0" encoding="utf-8"?>
<!-- Generator: Adobe Illustrator 21.0.0, SVG Export Plug-In . SVG Version: 6.00 Build 0)  -->
<svg version="1.1" id="Layer_1" xmlns="http://www.w3.org/2000/svg" xmlns:xlink="http://www.w3.org/1999/xlink" x="0px" y="0px"
	 viewBox="0 0 612 792" style="enable-background:new 0 0 612 792;" xml:space="preserve">
<style type="text/css">
	.st0{fill:#BAD532;}
	.st1{fill:#C9DA2B;stroke:#FFFFFF;stroke-miterlimit:10;}
	.st2{fill:#AFC636;}
	.st3{fill:#6C7933;}
	.st4{fill:#929838;}
	.st5{fill:#C9DA2B;}
	.st6{fill:#383E1B;}
	.st7{fill:none;stroke:#FFFFFF;stroke-miterlimit:10;}
	.st8{fill:#95AA3B;stroke:#FFFFFF;stroke-width:2;stroke-miterlimit:10;}
	.st9{fill:#6C7933;stroke:#FFFFFF;stroke-miterlimit:10;}
	.st10{fill:#434720;stroke:#FFFFFF;stroke-miterlimit:10;}
</style>
<rect x="0" y="329.6" class="st0" width="612" height="156.8"/>
<polyline class="st1" points="307.5,470 330.1,413.9 302.6,350.1 277.7,413.7 306.7,471.7 "/>
<g id="XMLID_1_">
	<g>
		<polygon class="st2" points="533.8,377.8 572.5,449.7 421.3,421.4 		"/>
		<polygon class="st3" points="572.5,449.7 425.9,455.2 421.3,421.4 		"/>
		<polygon class="st4" points="421.3,421.4 425.9,455.2 313.4,484.4 342.4,467.5 342.4,467.5 		"/>
		<polygon class="st4" points="533.8,377.8 421.3,421.4 439.4,375.6 		"/>
		<polygon class="st5" points="533.8,377.8 439.4,375.6 347.4,330.4 		"/>
		<polygon class="st3" points="439.4,375.6 421.3,421.4 372.1,360.7 347.4,330.4 		"/>
		<polygon class="st6" points="372.1,360.7 421.3,421.4 303.5,350 		"/>
		<polygon class="st6" points="421.3,421.4 342.4,467.5 342.4,467.5 306.1,472.3 305.7,472.1 		"/>
		<polygon class="st4" points="298.8,484.6 185,455.9 188.1,422.1 269,467.8 		"/>
		<polygon class="st6" points="305.7,472.1 306.1,472.3 305.4,472.4 305.1,472.4 		"/>
		<polygon class="st6" points="305.4,472.4 305,472.4 305.1,472.4 		"/>
		<polygon class="st6" points="305.7,472.1 305.1,472.4 269,467.8 188.1,422.1 		"/>
		<polygon class="st3" points="188.1,422.1 185,455.9 38.2,451.1 		"/>
		<polygon class="st6" points="302.6,350.1 188.1,422.1 234.6,361.2 		"/>
		<polygon class="st3" points="234.6,361.2 188.1,422.1 167.9,376.4 257.9,330.7 		"/>
		<polygon class="st4" points="167.9,376.4 188.1,422.1 73.6,379.1 		"/>
		<polygon class="st2" points="188.1,422.1 38.2,451.1 73.6,379.1 		"/>
		<polygon class="st5" points="257.9,330.7 167.9,376.4 73.6,379.1 		"/>
	</g>
	<g>
		<line class="st7" x1="572.5" y1="449.7" x2="533.8" y2="377.8"/>
		<line class="st7" x1="533.8" y1="377.8" x2="421.3" y2="421.4"/>
		<line class="st7" x1="572.5" y1="449.7" x2="421.3" y2="421.4"/>
		<line class="st7" x1="572.5" y1="449.7" x2="425.9" y2="455.2"/>
		<line class="st7" x1="425.9" y1="455.2" x2="421.3" y2="421.4"/>
		<line class="st7" x1="425.9" y1="455.2" x2="313.4" y2="484.4"/>
		<polyline class="st7" points="421.3,421.4 372.1,360.7 347.4,330.4 		"/>
		<line class="st7" x1="372.1" y1="360.7" x2="303.5" y2="350"/>
		<line class="st7" x1="421.3" y1="421.4" x2="303.5" y2="350"/>
		<line class="st7" x1="342.4" y1="467.5" x2="313.4" y2="484.4"/>
		<line class="st7" x1="421.3" y1="421.4" x2="342.4" y2="467.5"/>
		<polyline class="st7" points="342.4,467.5 342.4,467.5 306.1,472.3 305.4,472.4 305,472.4 		"/>
		<polyline class="st7" points="421.3,421.4 305.7,472.1 305.1,472.4 305,472.4 		"/>
		<line class="st7" x1="421.3" y1="421.4" x2="439.4" y2="375.6"/>
		<line class="st7" x1="533.8" y1="377.8" x2="347.4" y2="330.4"/>
		<line class="st7" x1="533.8" y1="377.8" x2="439.4" y2="375.6"/>
		<line class="st7" x1="347.4" y1="330.4" x2="439.4" y2="375.6"/>
		<line class="st7" x1="664.7" y1="419" x2="664.8" y2="419"/>
		<line class="st7" x1="38.2" y1="451.1" x2="73.6" y2="379.1"/>
		<line class="st7" x1="73.6" y1="379.1" x2="188.1" y2="422.1"/>
		<line class="st7" x1="38.2" y1="451.1" x2="188.1" y2="422.1"/>
		<line class="st7" x1="38.2" y1="451.1" x2="185" y2="455.9"/>
		<line class="st7" x1="185" y1="455.9" x2="188.1" y2="422.1"/>
		<line class="st7" x1="185" y1="455.9" x2="298.8" y2="484.6"/>
		<polyline class="st7" points="188.1,422.1 234.6,361.2 257.9,330.7 		"/>
		<line class="st7" x1="234.6" y1="361.2" x2="302.6" y2="350.1"/>
		<line class="st7" x1="188.1" y1="422.1" x2="302.6" y2="350.1"/>
		<polyline class="st7" points="188.1,422.1 269,467.8 298.8,484.6 		"/>
		<polyline class="st7" points="269,467.8 305.1,472.4 305.4,472.4 306.7,472.6 		"/>
		<polyline class="st7" points="188.1,422.1 305.7,472.1 306.1,472.3 306.7,472.6 		"/>
		<line class="st7" x1="188.1" y1="422.1" x2="167.9" y2="376.4"/>
		<line class="st7" x1="73.6" y1="379.1" x2="167.9" y2="376.4"/>
		<line class="st7" x1="257.9" y1="330.7" x2="167.9" y2="376.4"/>
		<line class="st7" x1="257.9" y1="330.7" x2="73.6" y2="379.1"/>
	</g>
</g>
<line class="st7" x1="302.6" y1="350.1" x2="306.7" y2="472.6"/>
<line class="st7" x1="304.8" y1="415.1" x2="277.7" y2="413.7"/>
<line class="st7" x1="304.8" y1="415.1" x2="330.1" y2="413.9"/>
<polyline class="st8" points="254.7,427.9 188.1,422.1 302.1,350.5 253.6,427.7 "/>
<polyline class="st8" points="350.9,427.8 421.3,421.4 304.7,350.7 353.8,427.8 "/>
<polyline class="st9" points="302.1,353 254.7,427.9 277.7,413.7 303.1,350.5 "/>
<polyline class="st9" points="304.3,351.7 353,428 330.1,413.9 303.6,350 "/>
<polygon class="st9" points="306.7,471.7 353,428 421.3,421.4 "/>
<polyline class="st9" points="306.7,472.6 188.1,422.1 254.7,427.9 306.7,471.7 "/>
<polygon class="st10" points="353,428 306.7,471.7 330.1,413.9 "/>
<polygon class="st10" points="277.7,413.7 254.7,427.9 306.7,471.7 "/>
</svg>
